<?xml version="1.0" encoding="UTF-8"?>
<!DOCTYPE svg PUBLIC "-//W3C//DTD SVG 1.1//EN" "http://www.w3.org/Graphics/SVG/1.1/DTD/svg11.dtd">
<!-- Creator: CorelDRAW X7 -->
<svg xmlns="http://www.w3.org/2000/svg" xml:space="preserve" width="210mm" height="297mm" version="1.1" style="shape-rendering:geometricPrecision; text-rendering:geometricPrecision; image-rendering:optimizeQuality; fill-rule:evenodd; clip-rule:evenodd"
viewBox="0 0 21000 29700"
 xmlns:xlink="http://www.w3.org/1999/xlink">
 <defs>
  <style type="text/css">
   <![CDATA[
    .fil0 {fill:#FEFEFE}
    .fil1 {fill:#FEFEFE;fill-rule:nonzero}
   ]]>
  </style>
 </defs>
 <g id="Layer_x0020_1">
  <metadata id="CorelCorpID_0Corel-Layer"/>
  <path class="fil0" d="M6911 14823l0 1884 -1885 0 0 1885 1885 0 1884 0 1884 0 1884 0 1885 0 1884 0 0 -1885 0 -160c-295,104 -612,160 -942,160 -330,0 -648,-56 -942,-160 -803,-284 -1440,-921 -1724,-1724 -104,-295 -161,-612 -161,-942 0,-330 57,-648 161,-942 284,-803 921,-1440 1724,-1724 294,-104 612,-161 942,-161 330,0 647,57 942,161l0 -161 0 -1884 0 -1884 -1884 0 -1885 0 -1884 0 -1884 0 -1884 0 -1885 0 0 1884 1885 0 1884 0 1884 0 1884 0 0 1884 -1884 0 -1884 0 -1884 0 0 1885 1884 0 1884 0 0 1884 -1884 0 -1884 0z"/>
  <path class="fil1" d="M1489 22300l0 -1764 1096 0 0 359 -678 0 0 351 606 0 0 356 -606 0 0 698 -418 0zm1660 0l-383 0 0 -1096 357 0 7 192c43,-77 95,-133 153,-167 59,-35 132,-53 220,-53l30 0 0 409 -40 0 -43 0c-118,0 -198,14 -239,41 -41,27 -62,92 -62,196l0 478zm559 -1505c0,-59 20,-108 61,-148 40,-41 90,-61 148,-61 60,0 109,20 149,60 41,40 61,89 61,149 0,58 -21,108 -61,150 -41,41 -90,62 -149,62 -57,0 -106,-21 -147,-63 -41,-42 -62,-91 -62,-149zm404 1505l-387 0 0 -1096 387 -53 0 1149zm992 -818c-23,-13 -44,-23 -65,-28 -21,-6 -41,-9 -62,-9 -72,0 -133,31 -182,91 -50,61 -75,137 -75,229 0,86 22,158 65,215 44,57 97,86 160,86 24,0 49,-5 76,-16 26,-9 54,-25 83,-46l0 -522zm381 -971l0 1789 -334 52 -14 -85c-54,29 -106,51 -158,65 -53,13 -105,20 -159,20 -153,0 -273,-50 -359,-152 -86,-101 -130,-241 -130,-421 0,-188 51,-339 152,-452 101,-114 235,-171 402,-171 39,0 76,4 112,12 36,7 71,19 107,36l0 -641 381 -52zm998 971c-23,-13 -45,-23 -66,-28 -20,-6 -41,-9 -61,-9 -72,0 -133,31 -183,91 -49,61 -74,137 -74,229 0,86 21,158 65,215 44,57 96,86 159,86 25,0 51,-7 77,-20 27,-14 54,-34 83,-62l0 -502zm381 -278l0 685c0,86 2,158 5,217 3,58 8,108 14,149l-353 97 -34 -104c-48,36 -95,62 -141,79 -46,17 -94,25 -144,25 -142,0 -260,-56 -356,-169 -97,-113 -145,-253 -145,-421 0,-177 54,-323 162,-438 108,-115 245,-173 410,-173 37,0 77,6 119,16 41,10 87,27 137,49l326 -12zm537 1096l-395 -1096 412 0 176 565 218 -565 338 0 -688 1627 -411 0c62,-59 119,-124 171,-198 53,-73 98,-152 136,-236l43 -97zm2950 -1206c-76,-79 -153,-137 -231,-175 -79,-38 -161,-57 -247,-57 -149,0 -271,52 -366,155 -95,103 -143,235 -143,396 0,162 47,293 142,393 93,100 216,150 367,150 89,0 178,-18 267,-56 89,-37 178,-93 266,-168l-27 468c-76,52 -158,91 -247,117 -90,27 -183,40 -280,40 -104,0 -203,-16 -299,-48 -95,-33 -183,-81 -263,-144 -114,-89 -201,-198 -261,-327 -60,-128 -91,-268 -91,-420 0,-131 23,-253 67,-368 45,-114 110,-215 195,-303 86,-88 185,-154 298,-201 113,-47 231,-70 356,-70 100,0 194,14 284,41 90,28 176,70 258,126l-45 451zm658 1206l-381 0 0 -1737 381 -52 0 847c53,-62 111,-108 172,-139 61,-30 128,-45 199,-45 116,0 204,33 264,99 60,67 90,164 90,292l0 735 -379 0 0 -628c0,-58 -11,-101 -35,-130 -23,-30 -58,-44 -105,-44 -66,0 -117,22 -153,67 -35,44 -53,109 -53,194l0 541zm1710 -818c-23,-13 -45,-23 -65,-28 -21,-6 -41,-9 -62,-9 -72,0 -133,31 -183,91 -49,61 -74,137 -74,229 0,86 22,158 65,215 44,57 97,86 159,86 25,0 51,-7 78,-20 26,-14 54,-34 82,-62l0 -502zm381 -278l0 685c0,86 2,158 5,217 3,58 8,108 15,149l-354 97 -34 -104c-48,36 -95,62 -141,79 -45,17 -94,25 -144,25 -141,0 -260,-56 -356,-169 -97,-113 -145,-253 -145,-421 0,-177 54,-323 162,-438 108,-115 245,-173 410,-173 38,0 78,6 119,16 42,10 87,27 138,49l325 -12zm668 1096l-386 0 0 -1737 386 -52 0 1789zm664 0l-386 0 0 -1737 386 -52 0 1789zm582 -650l475 -15 0 -17c0,-58 -20,-105 -61,-142 -40,-37 -92,-56 -153,-56 -69,0 -126,20 -172,61 -46,40 -76,96 -89,169zm727 259l-43 337c-74,35 -148,62 -220,79 -73,17 -145,25 -219,25 -183,0 -330,-52 -442,-157 -112,-106 -168,-243 -168,-411 0,-176 61,-325 184,-446 122,-122 271,-182 447,-182 150,0 273,44 369,133 96,89 144,204 144,345 0,22 -2,57 -5,105l-1 7 -34 49 -748 21c6,74 37,134 93,180 56,47 126,69 211,69 60,0 127,-13 200,-39 73,-25 151,-64 232,-115zm653 391l-382 0 0 -1096 353 0 0 183c58,-72 120,-125 186,-161 65,-35 137,-52 214,-52 116,0 204,33 264,99 60,67 90,164 90,292l0 735 -379 0 0 -628c0,-58 -12,-101 -35,-130 -24,-30 -58,-44 -105,-44 -66,0 -117,22 -153,67 -36,44 -53,109 -53,194l0 541zm1710 -818c-23,-13 -45,-23 -66,-28 -20,-6 -41,-9 -61,-9 -72,0 -133,31 -183,91 -49,61 -74,137 -74,228 0,86 21,158 65,215 44,57 96,86 159,86 24,0 50,-7 77,-21 28,-13 55,-34 83,-60l0 -502zm381 -278l0 993c0,101 -5,177 -15,228 -10,50 -25,97 -47,139 -46,88 -112,154 -198,199 -87,46 -192,68 -316,68 -74,0 -148,-8 -224,-25 -76,-16 -157,-41 -242,-75l-5 -304c82,44 156,76 222,97 66,20 129,30 188,30 85,0 151,-20 198,-61 47,-40 71,-98 71,-172l0 -74c-44,28 -87,48 -130,61 -43,13 -89,20 -137,20 -155,0 -280,-52 -376,-156 -95,-104 -143,-241 -143,-410 0,-176 54,-322 162,-438 108,-115 245,-173 410,-173 37,0 77,6 119,16 41,10 87,27 137,49l326 -12zm587 446l475 -15 0 -17c0,-58 -20,-105 -61,-142 -40,-37 -91,-56 -153,-56 -68,0 -126,20 -172,61 -46,40 -76,96 -89,169zm727 259l-43 337c-74,35 -148,62 -220,79 -72,17 -145,25 -219,25 -183,0 -330,-52 -442,-157 -112,-106 -168,-243 -168,-411 0,-176 61,-325 184,-446 122,-122 271,-182 447,-182 150,0 273,44 369,133 96,89 144,204 144,345 0,22 -2,57 -5,105l-1 7 -34 49 -747 21c5,74 36,134 92,180 56,47 126,69 211,69 60,0 127,-13 200,-39 73,-25 151,-64 232,-115z"/>
 </g>
</svg>
