<?xml version="1.0" encoding="UTF-8"?>
<!DOCTYPE svg PUBLIC "-//W3C//DTD SVG 1.1//EN" "http://www.w3.org/Graphics/SVG/1.1/DTD/svg11.dtd">
<!-- Creator: CorelDRAW X7 -->
<svg xmlns="http://www.w3.org/2000/svg" xml:space="preserve" width="210mm" height="297mm" version="1.1" style="shape-rendering:geometricPrecision; text-rendering:geometricPrecision; image-rendering:optimizeQuality; fill-rule:evenodd; clip-rule:evenodd"
viewBox="0 0 21000 29700"
 xmlns:xlink="http://www.w3.org/1999/xlink">
 <defs>
  <style type="text/css">
   <![CDATA[
    .fil0 {fill:#1F1B20}
   ]]>
  </style>
 </defs>
 <g id="Layer_x0020_1">
  <metadata id="CorelCorpID_0Corel-Layer"/>
  <path class="fil0" d="M6996 14669l0 1653 -1654 0 0 1653 1654 0 1653 0 1653 0 1653 0 1653 0 1653 0 0 -1653 0 -141c-258,91 -536,141 -826,141 -290,0 -568,-50 -827,-141 -704,-249 -1263,-808 -1512,-1512 -91,-259 -141,-537 -141,-827 0,-290 50,-568 141,-827 249,-704 808,-1263 1512,-1512 259,-91 537,-141 827,-141 290,0 568,50 826,141l0 -141 0 -1653 0 -1653 -1653 0 -1653 0 -1653 0 -1653 0 -1653 0 -1654 0 0 1653 1654 0 1653 0 1653 0 1653 0 0 1653 -1653 0 -1653 0 -1653 0 0 1653 1653 0 1653 0 0 1654 -1653 0 -1653 0z"/>
 </g>
</svg>
