<?xml version="1.0" encoding="UTF-8"?>
<!DOCTYPE svg PUBLIC "-//W3C//DTD SVG 1.1//EN" "http://www.w3.org/Graphics/SVG/1.1/DTD/svg11.dtd">
<!-- Creator: CorelDRAW X7 -->
<svg xmlns="http://www.w3.org/2000/svg" xml:space="preserve" width="297mm" height="210mm" version="1.1" style="shape-rendering:geometricPrecision; text-rendering:geometricPrecision; image-rendering:optimizeQuality; fill-rule:evenodd; clip-rule:evenodd"
viewBox="0 0 29700 21000"
 xmlns:xlink="http://www.w3.org/1999/xlink">
 <defs>
  <style type="text/css">
   <![CDATA[
    .fil0 {fill:#FEFEFE}
    .fil1 {fill:#FEFEFE;fill-rule:nonzero}
   ]]>
  </style>
 </defs>
 <g id="Layer_x0020_1">
  <metadata id="CorelCorpID_0Corel-Layer"/>
  <path class="fil0" d="M2976 10987l0 823 -824 0 0 824 824 0 823 0 824 0 824 0 823 0 824 0 0 -824 0 -70c-129,46 -267,70 -412,70 -144,0 -283,-24 -412,-70 -351,-124 -629,-402 -753,-753 -45,-129 -70,-268 -70,-412 0,-144 25,-283 70,-412 124,-351 402,-629 753,-753 129,-46 268,-71 412,-71 145,0 283,25 412,71l0 -71 0 -823 0 -824 -824 0 -823 0 -824 0 -824 0 -823 0 -824 0 0 824 824 0 823 0 824 0 824 0 0 823 -824 0 -824 0 -823 0 0 824 823 0 824 0 0 824 -824 0 -823 0z"/>
  <path class="fil1" d="M7918 11112l0 -1897 1178 0 0 385 -728 0 0 378 651 0 0 383 -651 0 0 751 -450 0zm1785 0l-413 0 0 -1179 384 0 8 206c47,-82 102,-142 165,-180 63,-37 142,-56 236,-56l33 0 0 440 -43 0 -46 0c-128,0 -214,14 -258,43 -44,30 -66,100 -66,212l0 514zm601 -1619c0,-63 22,-116 65,-159 44,-44 97,-66 160,-66 64,0 117,22 160,65 43,43 65,96 65,160 0,63 -22,117 -66,161 -43,45 -96,67 -159,67 -61,0 -114,-22 -159,-67 -44,-45 -66,-99 -66,-161zm434 1619l-416 0 0 -1179 416 -57 0 1236zm1067 -880c-25,-14 -48,-24 -71,-30 -22,-6 -44,-9 -66,-9 -77,0 -143,32 -196,97 -53,65 -80,147 -80,246 0,92 23,170 70,231 47,62 104,93 171,93 26,0 54,-6 82,-17 28,-11 58,-27 90,-50l0 -561zm410 -1044l0 1924 -360 56 -15 -92c-58,32 -114,55 -170,70 -57,14 -113,22 -171,22 -165,0 -294,-55 -386,-164 -93,-109 -139,-259 -139,-452 0,-203 54,-365 163,-487 109,-122 253,-183 432,-183 42,0 82,4 120,12 39,8 77,21 116,39l0 -689 410 -56zm1072 1044c-25,-14 -48,-24 -70,-30 -23,-6 -45,-9 -66,-9 -78,0 -144,32 -197,97 -53,65 -80,147 -80,246 0,92 23,170 70,231 47,62 104,93 171,93 27,0 55,-7 83,-22 29,-14 58,-36 89,-66l0 -540zm410 -299l0 736c0,93 1,171 5,234 4,62 9,116 16,160l-380 105 -37 -112c-51,38 -102,66 -151,85 -50,18 -101,27 -155,27 -153,0 -280,-61 -383,-182 -104,-121 -156,-272 -156,-453 0,-190 58,-347 174,-471 116,-123 263,-186 441,-186 40,0 83,6 128,17 44,12 94,29 148,53l350 -13zm577 1179l-424 -1179 442 0 190 608 234 -608 364 0 -740 1749 -442 0c66,-63 128,-133 184,-212 56,-79 105,-164 146,-254l46 -104zm3172 -1297c-82,-85 -165,-147 -249,-188 -85,-41 -173,-61 -265,-61 -161,0 -292,55 -394,166 -102,110 -153,253 -153,426 0,174 50,315 152,422 101,108 232,162 395,162 96,0 192,-20 287,-60 96,-41 191,-101 286,-181l-29 503c-81,55 -170,97 -266,126 -97,29 -197,43 -301,43 -111,0 -218,-17 -321,-52 -102,-35 -197,-87 -283,-155 -122,-96 -216,-213 -281,-351 -65,-138 -97,-289 -97,-452 0,-141 24,-272 72,-395 48,-123 118,-232 209,-326 93,-94 199,-166 321,-217 121,-50 249,-75 383,-75 107,0 208,15 305,45 97,29 189,75 277,135l-48 485zm707 1297l-410 0 0 -1868 410 -56 0 911c58,-67 119,-117 185,-149 66,-33 137,-49 214,-49 125,0 219,35 284,107 64,71 97,175 97,313l0 791 -408 0 0 -676c0,-62 -12,-109 -38,-140 -25,-32 -62,-47 -112,-47 -71,0 -126,24 -164,72 -39,48 -58,118 -58,209l0 582zm1838 -880c-24,-14 -47,-24 -70,-30 -22,-6 -44,-9 -66,-9 -77,0 -143,32 -196,97 -53,65 -80,147 -80,246 0,92 23,170 70,231 47,62 104,93 171,93 27,0 54,-7 83,-22 29,-14 58,-36 88,-66l0 -540zm410 -299l0 736c0,93 2,171 6,234 3,62 8,116 15,160l-380 105 -36 -112c-52,38 -102,66 -152,85 -49,18 -101,27 -155,27 -152,0 -280,-61 -383,-182 -103,-121 -155,-272 -155,-453 0,-190 58,-347 174,-471 116,-123 263,-186 440,-186 41,0 84,6 129,17 44,12 93,29 147,53l350 -13zm719 1179l-415 0 0 -1868 415 -56 0 1924zm713 0l-415 0 0 -1868 415 -56 0 1924zm626 -700l511 -15 0 -19c0,-62 -22,-113 -66,-152 -43,-40 -98,-60 -164,-60 -74,0 -136,21 -186,65 -49,43 -81,104 -95,181zm781 279l-45 362c-81,38 -160,67 -237,85 -78,18 -156,27 -236,27 -196,0 -354,-56 -475,-169 -120,-113 -180,-260 -180,-442 0,-189 65,-349 197,-479 132,-131 292,-196 481,-196 161,0 293,48 397,143 103,96 155,220 155,372 0,23 -2,60 -6,112l-1 8 -37 53 -803 22c6,80 39,144 99,194 60,49 136,74 227,74 65,0 137,-14 216,-42 78,-28 161,-69 248,-124zm702 421l-410 0 0 -1179 379 0 0 197c63,-77 130,-135 200,-173 71,-38 147,-56 230,-56 125,0 220,35 284,107 65,71 97,175 97,313l0 791 -407 0 0 -676c0,-62 -13,-109 -38,-140 -25,-32 -63,-47 -113,-47 -71,0 -126,24 -164,72 -38,48 -58,118 -58,209l0 582zm1839 -880c-25,-14 -48,-24 -70,-30 -23,-6 -44,-9 -66,-9 -78,0 -144,32 -197,97 -53,65 -80,147 -80,245 0,93 23,170 70,232 47,61 104,92 171,92 26,0 54,-7 83,-23 30,-14 59,-36 89,-65l0 -539zm410 -299l0 1068c0,108 -6,190 -16,245 -11,54 -28,104 -51,150 -49,94 -120,165 -213,214 -94,48 -207,72 -339,72 -80,0 -160,-9 -242,-26 -81,-17 -168,-44 -259,-81l-6 -327c88,47 167,81 239,104 71,22 139,33 202,33 91,0 163,-22 213,-66 51,-44 76,-105 76,-185l0 -79c-47,29 -94,51 -140,65 -46,14 -95,21 -147,21 -167,0 -301,-56 -404,-167 -102,-112 -154,-259 -154,-441 0,-190 58,-346 174,-470 116,-124 263,-187 441,-187 40,0 83,6 128,17 45,12 94,29 148,53l350 -13zm631 479l511 -15 0 -19c0,-62 -22,-113 -66,-152 -43,-40 -98,-60 -164,-60 -74,0 -136,21 -186,65 -49,43 -81,104 -95,181zm781 279l-45 362c-81,38 -160,67 -237,85 -78,18 -156,27 -236,27 -196,0 -354,-56 -475,-169 -120,-113 -180,-260 -180,-442 0,-189 65,-349 197,-479 132,-131 292,-196 481,-196 161,0 293,48 397,143 103,96 155,220 155,372 0,23 -2,60 -6,112l-1 8 -37 53 -803 22c6,80 39,144 99,194 60,49 136,74 227,74 65,0 136,-14 215,-42 79,-28 162,-69 249,-124z"/>
 </g>
</svg>
